<?xml version="1.0" encoding="UTF-8"?>
<svg id="Ebene_2" xmlns="http://www.w3.org/2000/svg" version="1.1" viewBox="0 0 278.1 54">
  <!-- Generator: Adobe Illustrator 30.2.1, SVG Export Plug-In . SVG Version: 2.1.1 Build 1)  -->
  <defs>
    <style>
      .st0 {
        fill: #fff;
      }

      .st0, .st1 {
        fill-rule: evenodd;
      }

      .st1, .st2 {
        fill: #1d1d1b;
      }

      .st3 {
        fill: none;
        stroke: #1d1d1b;
        stroke-linecap: round;
      }
    </style>
  </defs>
  <g id="Ebene_1-2">
    <g>
      <path id="X" class="st2" d="M249.6,30.3l-13.2-19.8h13.6l5.7,11,7.1-10.9h13.6l-14,19.8,15.8,22.6h-13.4l-8.5-13.8-9.9,13.8h-13.3l16.6-22.6h0Z"/>
      <path id="I" class="st2" d="M225.8,51.2c-.3,0-.5-.2-.5-.5s.2-.5.5-.5h2.7v-1.7h-2.7c-.3,0-.5-.2-.5-.5s.2-.5.5-.5h2.7v-1.7h-2.7c-.3,0-.5-.2-.5-.5s.2-.5.5-.5h2.7v-1.7h-2.7c-.3,0-.5-.2-.5-.5s.2-.5.5-.5h2.7v-1.7h-4.9c-.3,0-.5-.2-.5-.5s.2-.5.5-.5h4.9v-1.7h-2.7c-.3,0-.5-.2-.5-.5s.2-.5.5-.5h2.7v-1.7h-2.7c-.3,0-.5-.2-.5-.5s.2-.5.5-.5h2.7v-1.7h-2.7c-.3,0-.5-.2-.5-.5s.2-.5.5-.5h2.7v-1.7h-2.7c-.3,0-.5-.2-.5-.5s.2-.5.5-.5h2.7v-1.7h-4.3c-.3,0-.5-.2-.5-.5s.2-.5.5-.5h4.3v-1.7h-2.7c-.3,0-.5-.2-.5-.5s.2-.5.5-.5h2.7v-1.7h-2.7c-.3,0-.5-.2-.5-.5s.2-.5.5-.5h2.7v-1.7h-2.7c-.3,0-.5-.2-.5-.5s.2-.5.5-.5h2.7v-1.7h-2.7c-.3,0-.5-.2-.5-.5s.2-.5.5-.5h2.7v-1.7h-4.3c-.3,0-.5-.2-.5-.5s.2-.5.5-.5h4.3v-1.9h-11v42.3h11v-1.6h-2.7Z"/>
      <path id="N" class="st2" d="M166.4,52.8V10.5h11l20.3,25.9V10.5h10.9v42.3h-10.9l-20.3-25.9v25.9h-11Z"/>
      <g id="O">
        <path class="st2" d="M136,11.1c11.8,0,21.4,9.2,21.4,20.4s-9.6,20.4-21.4,20.4-21.4-9.2-21.4-20.4,9.6-20.4,21.4-20.4M136,9.1c-12.9,0-23.4,10-23.4,22.4s10.5,22.4,23.4,22.4,23.4-10,23.4-22.4-10.5-22.4-23.4-22.4h0Z"/>
        <path class="st2" d="M136,16.1c8.9,0,16.2,6.9,16.2,15.4s-7.3,15.4-16.2,15.4-16.2-6.9-16.2-15.4,7.3-15.4,16.2-15.4M136,14.1c-10.1,0-18.2,7.8-18.2,17.4s8.2,17.4,18.2,17.4,18.2-7.8,18.2-17.4-8.2-17.4-18.2-17.4h0Z"/>
        <path class="st2" d="M136,4.2c1.4,0,2.6,1.1,2.6,2.4s-1.1,2.4-2.6,2.4-2.6-1.1-2.6-2.4,1.1-2.4,2.6-2.4M136,2.2c-2.5,0-4.6,2-4.6,4.4s2.1,4.4,4.6,4.4,4.6-2,4.6-4.4-2.1-4.4-4.6-4.4h0Z"/>
        <g>
          <line class="st3" x1="136" y1="18.2" x2="136" y2="31.6"/>
          <line class="st3" x1="126.1" y1="22.1" x2="136" y2="31.6"/>
          <line class="st3" x1="122.1" y1="31.6" x2="136" y2="31.6"/>
        </g>
        <g>
          <line class="st3" x1="149.9" y1="31.6" x2="136" y2="31.6"/>
          <line class="st3" x1="145.8" y1="41" x2="136" y2="31.6"/>
          <line class="st3" x1="136" y1="44.9" x2="136" y2="31.6"/>
        </g>
        <g>
          <path class="st1" d="M146.3,21.7l-11.3,7.6c.3-.1.6-.2,1-.2,1.4,0,2.6,1.1,2.6,2.5s0,.6-.2.9l7.9-10.8h0Z"/>
          <path class="st1" d="M136,34c-1.4,0-2.6-1.1-2.6-2.5s0-.6.2-1l-7.9,10.8,11.3-7.6c-.3.1-.6.2-1,.2h0Z"/>
          <g>
            <path class="st0" d="M136,33.8c-1.3,0-2.3-1-2.3-2.2s1-2.2,2.3-2.2,2.3,1,2.3,2.2-1,2.2-2.3,2.2Z"/>
            <path class="st2" d="M136,29.6c1.1,0,2.1.9,2.1,2s-.9,2-2.1,2-2.1-.9-2.1-2,.9-2,2.1-2M136,29.1c-1.4,0-2.6,1.1-2.6,2.5s1.1,2.5,2.6,2.5,2.6-1.1,2.6-2.5-1.1-2.5-2.6-2.5h0Z"/>
          </g>
        </g>
      </g>
      <path id="L" class="st2" d="M96.4,10.5v33h13.2v9.3h-24.2V10.5h11,0Z"/>
      <g id="A">
        <path class="st2" d="M74.2,41.4l.8,2c.4,1.2,0,2.4-1.1,3l1.4,3.7c.2.5,0,1.1-.6,1.3-.5.2-1.1,0-1.3-.6l-1.4-3.7c-1.2.3-2.4-.3-2.8-1.5l-1.6-4.2h-18.1l-1.8,4.8c-.4,1.2-1.7,1.8-2.8,1.5l-1.2,3.1c-.2.5-.8.8-1.3.6-.5-.2-.8-.8-.6-1.3l1.2-3.1c-1-.6-1.5-1.9-1.1-3l1-2.6h-2.1l-4.3,11.4h11.7l2.5-7.4h15.7l2.5,7.4h11.7l-4.3-11.4h-2.1,0Z"/>
        <path class="st2" d="M61.1,17.6l1.2-.5c1.3-.5,2.7.2,3.2,1.4l8.4,22h2.1l-11.4-30h-2.1c.6.8,1,1.8,1,2.8,0,2.6-2.1,4.7-4.7,4.7s-4.7-2.1-4.7-4.7.4-2.1,1-2.8h-2.6l-11.4,30h2.1l8.4-22.2c.5-1.3,1.9-1.9,3.2-1.4l1.2.5c1.3.5,1.9,1.9,1.4,3.2l-7,18.3-.6,1.7h17.4l-7.5-19.8c-.5-1.3.2-2.7,1.4-3.2h0ZM63.4,37.1h-9.9l4.9-14.1s4.9,14.1,4.9,14.1Z"/>
        <g>
          <path d="M58.7,5.7c-4.2,0-7.7,3.4-7.7,7.7s3.4,7.7,7.7,7.7,7.7-3.4,7.7-7.7-3.4-7.7-7.7-7.7ZM58.7,18c-2.6,0-4.7-2.1-4.7-4.7s2.1-4.7,4.7-4.7,4.7,2.1,4.7,4.7-2.1,4.7-4.7,4.7Z"/>
          <path d="M62,1C62,.4,61.6,0,61,0h-4.6C55.9,0,55.4.4,55.4,1v5.9c0,.6.5,1,1,1h4.6c.5,0,1-.4,1-1V1ZM57.2,5.5c0,.3-.2.5-.5.5s-.5-.2-.5-.5V1.2c0-.3.2-.5.5-.5s.5.2.5.5c0,0,0,4.2,0,4.2ZM59.2,5.5c0,.3-.2.5-.5.5s-.5-.2-.5-.5V1.2c0-.3.2-.5.5-.5s.5.2.5.5c0,0,0,4.2,0,4.2ZM61.3,5.5c0,.3-.2.5-.5.5s-.5-.2-.5-.5V1.2c0-.3.2-.5.5-.5s.5.2.5.5c0,0,0,4.2,0,4.2Z"/>
        </g>
        <g>
          <circle cx="79.7" cy="41" r="1.4"/>
          <circle cx="38" cy="41" r="1.4"/>
          <g>
            <polygon points="67.5 41.4 74.2 41.4 73.8 40.5 67.2 40.5 67.5 41.4"/>
            <polygon points="49.8 40.5 43.1 40.5 42.8 41.4 49.4 41.4 49.8 40.5"/>
          </g>
        </g>
      </g>
      <path id="C" class="st2" d="M32.4,24.6c-2.5-3.1-5.7-4.7-9.4-4.7s-3.2.3-4.6.9-2.6,1.4-3.6,2.4-1.8,2.2-2.4,3.7c-.6,1.4-.9,3-.9,4.6s.3,3.2.9,4.7,1.4,2.7,2.4,3.7,2.2,1.9,3.6,2.5c1.4.6,2.9.9,4.5.9,3.5,0,6.7-1.5,9.5-4.5v13l-1.1.4c-1.7.6-3.3,1-4.7,1.3s-2.9.4-4.3.4c-2.9,0-5.7-.5-8.4-1.7-2.7-1.1-5-2.7-7.1-4.7s-3.7-4.4-4.9-7.1C.6,37.8,0,34.8,0,31.6s.6-6.2,1.8-9,2.8-5.1,4.9-7c2-2,4.4-3.5,7.1-4.6,2.7-1.1,5.5-1.7,8.5-1.7s3.3.2,5,.5c1.6.4,3.3.9,5.1,1.7,0,0,0,13.1,0,13.1Z"/>
    </g>
  </g>
</svg>