<?xml version="1.0" encoding="UTF-8"?>
<svg id="Ebene_2" data-name="Ebene 2" xmlns="http://www.w3.org/2000/svg" viewBox="0 0 241.98 45.83">
  <defs>
    <style>
      .cls-1 {
        fill: #1d1d1b;
      }
    </style>
  </defs>
  <g id="Ebene_1-2" data-name="Ebene 1">
    <g>
      <path class="cls-1" d="M139.07,24.5l-10.57,6.92-.68-7.88c-1.34,3.73-7.59,22.29-7.99,22.29-.44,0-6.84-20.33-7.82-22.43l-.54,8.05-10.62-6.92c5.76-5.37,8.86-13.16,10.42-20.44l.33-1.53c.32-1.35.67-2.24.76-2.56,3.22,9.64,5.75,19.44,7.32,29.51.04.31.07.83.13,1.14.4,0,.31-.39.38-.83,1.23-7.23,2.76-14.2,4.72-21.21.57-2.03,1.83-6.38,2.82-8.42,1.95,9.36,4.62,17.77,11.34,24.31Z"/>
      <g>
        <path class="cls-1" d="M8.59,37.71H0V4.67h13.67c3.71,0,6.55.96,8.52,2.89s2.96,4.65,2.96,8.15-.99,6.22-2.96,8.15-4.81,2.89-8.52,2.89h-5.08v10.95ZM8.59,19.83h2.85c3.16,0,4.73-1.37,4.73-4.12s-1.58-4.12-4.73-4.12h-2.85v8.24Z"/>
        <path class="cls-1" d="M57.18,37.71h-10.69l-8.19-12.71v12.71h-8.59V4.67h13.36c1.84,0,3.45.27,4.82.81,1.37.54,2.5,1.28,3.4,2.21.89.94,1.56,2.02,2.02,3.24.45,1.23.68,2.54.68,3.94,0,2.51-.61,4.55-1.82,6.11-1.21,1.56-3,2.62-5.37,3.18l10.39,13.54ZM38.3,19.44h1.62c1.69,0,2.99-.35,3.9-1.05.91-.7,1.36-1.71,1.36-3.02s-.45-2.32-1.36-3.02c-.91-.7-2.21-1.05-3.9-1.05h-1.62v8.15Z"/>
        <path class="cls-1" d="M58.67,21.19c0-2.45.45-4.74,1.36-6.86.91-2.12,2.16-3.97,3.77-5.54,1.61-1.58,3.53-2.81,5.76-3.7,2.23-.89,4.7-1.34,7.38-1.34s5.11.45,7.36,1.34c2.25.89,4.18,2.12,5.81,3.7s2.88,3.43,3.79,5.54c.91,2.12,1.36,4.4,1.36,6.86s-.45,4.74-1.36,6.86c-.91,2.12-2.17,3.97-3.79,5.54s-3.56,2.81-5.81,3.7c-2.25.89-4.7,1.34-7.36,1.34s-5.15-.45-7.38-1.34c-2.23-.89-4.16-2.12-5.76-3.7-1.61-1.58-2.86-3.43-3.77-5.54-.91-2.12-1.36-4.4-1.36-6.86ZM67.66,21.19c0,1.31.25,2.53.74,3.64s1.17,2.07,2.02,2.89c.85.82,1.83,1.45,2.96,1.9,1.12.45,2.32.68,3.57.68s2.45-.23,3.57-.68c1.12-.45,2.12-1.09,2.98-1.9.86-.82,1.54-1.78,2.04-2.89.5-1.11.74-2.32.74-3.64s-.25-2.53-.74-3.64c-.5-1.11-1.18-2.07-2.04-2.89-.86-.82-1.86-1.45-2.98-1.91-1.13-.45-2.32-.68-3.57-.68s-2.45.23-3.57.68c-1.12.45-2.11,1.09-2.96,1.91-.85.82-1.52,1.78-2.02,2.89s-.74,2.32-.74,3.64Z"/>
        <path class="cls-1" d="M164.85,11.94h-10.21v5.52h9.64v7.27h-9.64v5.7h10.21v7.27h-18.8V4.67h18.8v7.27Z"/>
        <path class="cls-1" d="M192.41,11.94v25.77h-8.59V11.94h-7.05v-7.27h22.7v7.27h-7.06Z"/>
        <path class="cls-1" d="M205.39,21.19c0-2.45.45-4.74,1.36-6.86.91-2.12,2.16-3.97,3.77-5.54,1.61-1.58,3.53-2.81,5.76-3.7,2.23-.89,4.7-1.34,7.38-1.34s5.11.45,7.36,1.34c2.25.89,4.18,2.12,5.81,3.7s2.88,3.43,3.79,5.54c.91,2.12,1.36,4.4,1.36,6.86s-.45,4.74-1.36,6.86c-.91,2.12-2.17,3.97-3.79,5.54s-3.56,2.81-5.81,3.7c-2.25.89-4.7,1.34-7.36,1.34s-5.15-.45-7.38-1.34c-2.23-.89-4.16-2.12-5.76-3.7-1.61-1.58-2.86-3.43-3.77-5.54-.91-2.12-1.36-4.4-1.36-6.86ZM214.37,21.19c0,1.31.25,2.53.74,3.64s1.17,2.07,2.02,2.89c.85.82,1.83,1.45,2.96,1.9,1.12.45,2.32.68,3.57.68s2.45-.23,3.57-.68c1.12-.45,2.12-1.09,2.98-1.9.86-.82,1.54-1.78,2.04-2.89.5-1.11.74-2.32.74-3.64s-.25-2.53-.74-3.64c-.5-1.11-1.18-2.07-2.04-2.89-.86-.82-1.86-1.45-2.98-1.91-1.13-.45-2.32-.68-3.57-.68s-2.45.23-3.57.68c-1.12.45-2.11,1.09-2.96,1.91-.85.82-1.52,1.78-2.02,2.89s-.74,2.32-.74,3.64Z"/>
      </g>
    </g>
  </g>
</svg>