<?xml version="1.0" encoding="UTF-8"?>
<svg id="Ebene_2" data-name="Ebene 2" xmlns="http://www.w3.org/2000/svg" viewBox="0 0 241.98 175.85">
  <defs>
    <style>
      .cls-1 {
        fill: #1d1d1b;
      }
    </style>
  </defs>
  <g id="Ebene_1-2" data-name="Ebene 1">
    <g id="Standard">
      <path class="cls-1" d="M30.17,96.39l7.89,2.02c2.87.73,18.44,1.6,20.38.44-19.16-2.43-34.9-12.69-41.06-32.05,8.87,5.52,18.02,9.35,28.22,10.79-6.12-3.74-12.03-6.61-16.95-11.32-9.51-8.22-15.52-19.8-15.64-32.89,8.6,10.86,20.51,17.48,32.55,23.99,2.35,1.27,4.77,2.31,6.84,3.98.36.29.33.51.91.18,1.19-.68-2.68-2.18-2.29-1.92-6.94-4.52-13.07-9.94-18.58-16.35C21.84,30.9,20.29,15.91,23.68,0c7.86,16.35,19.25,28.77,32.77,40.5,7.1,6.17,14.21,11.44,21.68,17.2l24.05,18.53c2.96,2.28,5.46,4.49,8.06,7.18,5.57,5.75,6.71,13.66,3.07,20.96-3.18,6.38-7.39,12.03-12.38,17.03-13.11,13.12-32.99,9.87-47.95.49,12.85-.04,20.63-3.99,30.7-10.91,3.06-1.93,1.41.34,2.16-1.21.06-.12.06-.72-.45-.44-12.61,6.7-27.57,9.53-40.25,1.81-5.98-3.64-11.06-8.32-14.96-14.75Z"/>
      <path class="cls-1" d="M182.83,98.9c9.66,1.06,17.32.5,27.08-2.74-5.38,8.65-14.7,16.74-25.23,18.94-10.37,2.17-20.63-1.19-30.19-5.57,9.55,7.49,19.26,12.37,32.18,12.44-14.36,9.18-34.65,12.67-47.96-.74-5.05-5.09-9.33-10.81-12.43-17.28-3.72-7.77-1.8-16.09,4.46-21.79,6.88-6.25,13.89-11.55,21.33-17.25l23.85-18.28c7.8-5.98,14.87-12.46,21.59-19.74,7.3-7.9,13.41-16.4,18.08-26.05.19-.38.31-.55.49-.57.28-.04.59.08.65.25.1.3-.37.68-.31.98,3.11,15.91,1.37,28.98-9.04,41.73-5.3,6.49-11.68,11.01-18.03,16.55,7.42-3.55,14.36-7.55,21.29-12.09,6.1-3.99,11.17-8.47,16.16-14.11-.22,12.7-5.84,23.79-14.98,32.1-5.38,4.89-11.14,8.05-17.66,11.84,9.43-1.14,20.43-5.61,28.05-10.73.07,1.37-.4,2.25-.74,3.05-7.48,17.39-20.41,25.77-38.63,29.06Z"/>
      <path class="cls-1" d="M120.52,91.73c1.69-5.95,5.08-10.19,9.19-14.31-2.19-2.96-7.75-7.16-3.74-10.58,3.11-2.65,10.86-5.05,12.63-.69,1.83-4.71-2.16-6.66-5.08-8.6-3.41-2.27-6.44-4.5-11.24-3.57-9.01,1.76-9.96,7.1-19.76,9.23,2.61.81,5,.58,8.23.83-2.29,3.53-2.71,7.22-.36,10.59l5.3,7.59c2.19,3.14,3.72,6.32,4.81,9.51Z"/>
      <g>
        <path class="cls-1" d="M139.07,154.52l-10.57,6.92-.68-7.88c-1.34,3.73-7.59,22.29-7.99,22.29-.44,0-6.84-20.33-7.82-22.43l-.54,8.05-10.62-6.92c5.76-5.37,8.86-13.16,10.42-20.44l.33-1.53c.32-1.35.67-2.24.76-2.56,3.22,9.64,5.75,19.44,7.32,29.51.04.31.07.83.13,1.14.4,0,.31-.39.38-.83,1.23-7.23,2.76-14.2,4.72-21.21.57-2.03,1.83-6.38,2.82-8.42,1.95,9.36,4.62,17.77,11.34,24.31Z"/>
        <g>
          <path class="cls-1" d="M8.59,167.72H0v-33.04h13.67c3.71,0,6.55.96,8.52,2.89s2.96,4.65,2.96,8.15-.99,6.22-2.96,8.15-4.81,2.89-8.52,2.89h-5.08v10.95ZM8.59,149.85h2.85c3.16,0,4.73-1.37,4.73-4.12s-1.58-4.12-4.73-4.12h-2.85v8.24Z"/>
          <path class="cls-1" d="M57.18,167.72h-10.69l-8.19-12.71v12.71h-8.59v-33.04h13.36c1.84,0,3.45.27,4.82.81,1.37.54,2.5,1.28,3.4,2.21.89.94,1.56,2.02,2.02,3.24.45,1.23.68,2.54.68,3.94,0,2.51-.61,4.55-1.82,6.11-1.21,1.56-3,2.62-5.37,3.18l10.39,13.54ZM38.3,149.45h1.62c1.69,0,2.99-.35,3.9-1.05.91-.7,1.36-1.71,1.36-3.02s-.45-2.32-1.36-3.02c-.91-.7-2.21-1.05-3.9-1.05h-1.62v8.15Z"/>
          <path class="cls-1" d="M58.67,151.2c0-2.45.45-4.74,1.36-6.86.91-2.12,2.16-3.97,3.77-5.54,1.61-1.58,3.53-2.81,5.76-3.7,2.23-.89,4.7-1.34,7.38-1.34s5.11.45,7.36,1.34c2.25.89,4.18,2.12,5.81,3.7s2.88,3.43,3.79,5.54c.91,2.12,1.36,4.4,1.36,6.86s-.45,4.74-1.36,6.86c-.91,2.12-2.17,3.97-3.79,5.54s-3.56,2.81-5.81,3.7c-2.25.89-4.7,1.34-7.36,1.34s-5.15-.45-7.38-1.34c-2.23-.89-4.16-2.12-5.76-3.7-1.61-1.58-2.86-3.43-3.77-5.54-.91-2.12-1.36-4.4-1.36-6.86ZM67.66,151.2c0,1.31.25,2.53.74,3.64s1.17,2.07,2.02,2.89c.85.82,1.83,1.45,2.96,1.9,1.12.45,2.32.68,3.57.68s2.45-.23,3.57-.68c1.12-.45,2.12-1.09,2.98-1.9.86-.82,1.54-1.78,2.04-2.89.5-1.11.74-2.32.74-3.64s-.25-2.53-.74-3.64c-.5-1.11-1.18-2.07-2.04-2.89-.86-.82-1.86-1.45-2.98-1.91-1.13-.45-2.32-.68-3.57-.68s-2.45.23-3.57.68c-1.12.45-2.11,1.09-2.96,1.91-.85.82-1.52,1.78-2.02,2.89s-.74,2.32-.74,3.64Z"/>
          <path class="cls-1" d="M164.85,141.96h-10.21v5.52h9.64v7.27h-9.64v5.7h10.21v7.27h-18.8v-33.04h18.8v7.27Z"/>
          <path class="cls-1" d="M192.24,142.18v25.77h-8.59v-25.77h-7.05v-7.27h22.7v7.27h-7.06Z"/>
          <path class="cls-1" d="M205.39,151.2c0-2.45.45-4.74,1.36-6.86.91-2.12,2.16-3.97,3.77-5.54,1.61-1.58,3.53-2.81,5.76-3.7,2.23-.89,4.7-1.34,7.38-1.34s5.11.45,7.36,1.34c2.25.89,4.18,2.12,5.81,3.7s2.88,3.43,3.79,5.54c.91,2.12,1.36,4.4,1.36,6.86s-.45,4.74-1.36,6.86c-.91,2.12-2.17,3.97-3.79,5.54s-3.56,2.81-5.81,3.7c-2.25.89-4.7,1.34-7.36,1.34s-5.15-.45-7.38-1.34c-2.23-.89-4.16-2.12-5.76-3.7-1.61-1.58-2.86-3.43-3.77-5.54-.91-2.12-1.36-4.4-1.36-6.86ZM214.37,151.2c0,1.31.25,2.53.74,3.64s1.17,2.07,2.02,2.89c.85.82,1.83,1.45,2.96,1.9,1.12.45,2.32.68,3.57.68s2.45-.23,3.57-.68c1.12-.45,2.12-1.09,2.98-1.9.86-.82,1.54-1.78,2.04-2.89.5-1.11.74-2.32.74-3.64s-.25-2.53-.74-3.64c-.5-1.11-1.18-2.07-2.04-2.89-.86-.82-1.86-1.45-2.98-1.91-1.13-.45-2.32-.68-3.57-.68s-2.45.23-3.57.68c-1.12.45-2.11,1.09-2.96,1.91-.85.82-1.52,1.78-2.02,2.89s-.74,2.32-.74,3.64Z"/>
        </g>
      </g>
    </g>
  </g>
</svg>