<?xml version="1.0" encoding="UTF-8"?>
<svg id="Ebene_2" data-name="Ebene 2" xmlns="http://www.w3.org/2000/svg" viewBox="0 0 230.42 36.76">
  <defs>
    <style>
      .cls-1 {
        fill: #1d1d1b;
      }
    </style>
  </defs>
  <g id="Ebene_1-2" data-name="Ebene 1">
    <g>
      <g>
        <path class="cls-1" d="M189.32,20.15l1.65.42c.6.15,3.85.33,4.26.09-4-.51-7.3-2.65-8.58-6.7,1.85,1.15,3.77,1.95,5.9,2.26-1.28-.78-2.51-1.38-3.54-2.37-1.99-1.72-3.24-4.14-3.27-6.87,1.8,2.27,4.29,3.65,6.8,5.01.49.27,1,.48,1.43.83.08.06.07.11.19.04.25-.14-.56-.46-.48-.4-1.45-.94-2.73-2.08-3.88-3.42-2.22-2.58-2.54-5.71-1.83-9.04,1.64,3.42,4.02,6.01,6.85,8.46,1.48,1.29,2.97,2.39,4.53,3.59l5.03,3.87c.62.48,1.14.94,1.68,1.5,1.16,1.2,1.4,2.86.64,4.38-.67,1.33-1.54,2.52-2.59,3.56-2.74,2.74-6.9,2.06-10.02.1,2.69,0,4.31-.83,6.42-2.28.64-.4.29.07.45-.25.01-.03.01-.15-.09-.09-2.64,1.4-5.76,1.99-8.41.38-1.25-.76-2.31-1.74-3.13-3.08Z"/>
        <path class="cls-1" d="M221.23,20.67c2.02.22,3.62.1,5.66-.57-1.12,1.81-3.07,3.5-5.27,3.96s-4.31-.25-6.31-1.16c2,1.57,4.03,2.59,6.73,2.6-3,1.92-7.24,2.65-10.02-.16-1.06-1.06-1.95-2.26-2.6-3.61-.78-1.62-.38-3.36.93-4.55,1.44-1.31,2.9-2.41,4.46-3.61l4.98-3.82c1.63-1.25,3.11-2.6,4.51-4.13,1.53-1.65,2.8-3.43,3.78-5.44.04-.08.06-.11.1-.12.06,0,.12.02.14.05.02.06-.08.14-.06.2.65,3.33.29,6.06-1.89,8.72-1.11,1.36-2.44,2.3-3.77,3.46,1.55-.74,3-1.58,4.45-2.53,1.27-.83,2.34-1.77,3.38-2.95-.05,2.66-1.22,4.97-3.13,6.71-1.12,1.02-2.33,1.68-3.69,2.48,1.97-.24,4.27-1.17,5.86-2.24.01.29-.08.47-.16.64-1.56,3.64-4.27,5.39-8.08,6.07Z"/>
        <g>
          <g>
            <path class="cls-1" d="M208.05,33.58c.06.29,0,.6.02.89.06,1-.02,1.36.02,2.22l.85-2.26c.29-.78.56-1.53.79-2.34l.14,1.65,2.21-1.45c-1.41-1.37-1.96-3.12-2.37-5.08-.21.43-.47,1.33-.59,1.76-.41,1.46-.73,2.92-.99,4.43-.02.09,0,.17-.08.17Z"/>
            <path class="cls-1" d="M208.09,36.69c-.04-.86.04-1.22-.02-2.22-.02-.29.04-.59-.02-.89-.01-.06-.02-.17-.03-.24-.33-2.1-.86-4.15-1.53-6.17-.27.02-.03-.09-.16.53l-.07.32c-.33,1.52-.97,3.15-2.18,4.27l2.22,1.45.11-1.68c.21.44.21.84.37,1.24.32.8.64,1.57.89,2.39.1.33.28.63.31.99,0,.06-.02.09.07.07.03,0,.02-.04.03-.06Z"/>
          </g>
          <path class="cls-1" d="M208.2,19.17c.35-1.24,1.06-2.13,1.92-2.99-.46-.62-1.62-1.5-.78-2.21.65-.55,2.27-1.06,2.64-.14.38-.98-.45-1.39-1.06-1.8-.71-.47-1.35-.94-2.35-.75-1.88.37-2.08,1.49-4.13,1.93.54.17,1.05.12,1.72.17-.48.74-.57,1.51-.07,2.21l1.11,1.59c.46.66.78,1.32,1.01,1.99Z"/>
        </g>
      </g>
      <g>
        <path class="cls-1" d="M101.76,19.54l-7.73,5.06-.5-5.77c-.98,2.73-5.55,16.31-5.85,16.31-.32,0-5-14.88-5.72-16.41l-.4,5.89-7.77-5.06c4.21-3.93,6.48-9.63,7.62-14.96l.24-1.12c.24-.99.49-1.64.56-1.87,2.36,7.05,4.21,14.22,5.36,21.59.03.23.05.61.1.83.29,0,.23-.29.28-.61.9-5.29,2.02-10.39,3.45-15.52.42-1.49,1.34-4.67,2.06-6.16,1.43,6.85,3.38,13,8.3,17.79Z"/>
        <g>
          <path class="cls-1" d="M6.28,29.2H0V5.03h10c2.71,0,4.79.71,6.24,2.12s2.16,3.4,2.16,5.96-.72,4.55-2.16,5.96-3.52,2.12-6.24,2.12h-3.72v8.02ZM6.28,16.12h2.08c2.31,0,3.46-1,3.46-3.01s-1.15-3.01-3.46-3.01h-2.08v6.03Z"/>
          <path class="cls-1" d="M41.84,29.2h-7.82l-6-9.3v9.3h-6.28V5.03h9.78c1.35,0,2.52.2,3.53.59,1,.4,1.83.93,2.49,1.62.65.68,1.14,1.47,1.47,2.37.33.9.5,1.86.5,2.89,0,1.84-.44,3.33-1.33,4.47-.89,1.14-2.2,1.92-3.93,2.32l7.6,9.91ZM28.02,15.83h1.19c1.24,0,2.19-.26,2.85-.77.66-.51.99-1.25.99-2.21s-.33-1.7-.99-2.21c-.66-.51-1.61-.77-2.85-.77h-1.19v5.96Z"/>
          <path class="cls-1" d="M42.93,17.12c0-1.8.33-3.47.99-5.02.66-1.55,1.58-2.9,2.76-4.06,1.17-1.15,2.58-2.06,4.22-2.71,1.64-.65,3.44-.98,5.4-.98s3.74.33,5.39.98c1.65.65,3.06,1.55,4.25,2.71s2.11,2.51,2.77,4.06c.66,1.55.99,3.22.99,5.02s-.33,3.47-.99,5.02c-.66,1.55-1.59,2.9-2.77,4.06s-2.6,2.06-4.25,2.71c-1.65.65-3.44.98-5.39.98s-3.77-.33-5.4-.98c-1.64-.65-3.04-1.55-4.22-2.71-1.18-1.15-2.1-2.51-2.76-4.06-.66-1.55-.99-3.22-.99-5.02ZM49.5,17.12c0,.96.18,1.85.54,2.66s.85,1.52,1.47,2.12c.62.6,1.34,1.06,2.16,1.39.82.33,1.69.5,2.61.5s1.79-.17,2.61-.5c.82-.33,1.55-.8,2.18-1.39.63-.6,1.13-1.3,1.49-2.12.36-.81.54-1.7.54-2.66s-.18-1.85-.54-2.66c-.36-.81-.86-1.52-1.49-2.12-.63-.6-1.36-1.06-2.18-1.39-.82-.33-1.69-.5-2.61-.5s-1.79.17-2.61.5c-.82.33-1.54.8-2.16,1.39-.62.6-1.11,1.3-1.47,2.12s-.54,1.7-.54,2.66Z"/>
          <path class="cls-1" d="M120.62,10.35h-7.47v4.04h7.05v5.32h-7.05v4.17h7.47v5.32h-13.75V5.03h13.75v5.32Z"/>
          <path class="cls-1" d="M140.59,10.35v18.85h-6.28V10.35h-5.16v-5.32h16.61v5.32h-5.16Z"/>
          <path class="cls-1" d="M150.28,17.12c0-1.8.33-3.47.99-5.02.66-1.55,1.58-2.9,2.76-4.06,1.17-1.15,2.58-2.06,4.22-2.71,1.64-.65,3.44-.98,5.4-.98s3.74.33,5.39.98c1.65.65,3.06,1.55,4.25,2.71s2.11,2.51,2.77,4.06c.66,1.55.99,3.22.99,5.02s-.33,3.47-.99,5.02c-.66,1.55-1.59,2.9-2.77,4.06s-2.6,2.06-4.25,2.71c-1.65.65-3.44.98-5.39.98s-3.77-.33-5.4-.98c-1.64-.65-3.04-1.55-4.22-2.71-1.18-1.15-2.1-2.51-2.76-4.06-.66-1.55-.99-3.22-.99-5.02ZM156.86,17.12c0,.96.18,1.85.54,2.66s.85,1.52,1.47,2.12c.62.6,1.34,1.06,2.16,1.39.82.33,1.69.5,2.61.5s1.79-.17,2.61-.5c.82-.33,1.55-.8,2.18-1.39.63-.6,1.13-1.3,1.49-2.12.36-.81.54-1.7.54-2.66s-.18-1.85-.54-2.66c-.36-.81-.86-1.52-1.49-2.12-.63-.6-1.36-1.06-2.18-1.39-.82-.33-1.69-.5-2.61-.5s-1.79.17-2.61.5c-.82.33-1.54.8-2.16,1.39-.62.6-1.11,1.3-1.47,2.12s-.54,1.7-.54,2.66Z"/>
        </g>
      </g>
    </g>
  </g>
</svg>