<?xml version="1.0" encoding="UTF-8"?>
<svg id="Ebene_2" data-name="Ebene 2" xmlns="http://www.w3.org/2000/svg" viewBox="0 0 213.79 175.85">
  <defs>
    <style>
      .cls-1 {
        fill: #1d1d1b;
      }
    </style>
  </defs>
  <g id="Ebene_1-2" data-name="Ebene 1">
    <g>
      <path class="cls-1" d="M17.16,96.39l7.89,2.02c2.87.73,18.44,1.6,20.38.44-19.16-2.43-34.9-12.69-41.06-32.05,8.87,5.52,18.02,9.35,28.22,10.79-6.12-3.74-12.03-6.61-16.95-11.32C6.13,58.04.12,46.45,0,33.37c8.6,10.86,20.51,17.48,32.55,23.99,2.35,1.27,4.77,2.31,6.84,3.98.36.29.33.51.91.18,1.19-.68-2.68-2.18-2.29-1.92-6.94-4.52-13.07-9.94-18.58-16.35C8.83,30.9,7.27,15.91,10.67,0c7.86,16.35,19.25,28.77,32.77,40.5,7.1,6.17,14.21,11.44,21.68,17.2l24.05,18.53c2.96,2.28,5.46,4.49,8.06,7.18,5.57,5.75,6.71,13.66,3.07,20.96-3.18,6.38-7.39,12.03-12.38,17.03-13.11,13.12-32.99,9.87-47.95.49,12.85-.04,20.63-3.99,30.7-10.91,3.06-1.93,1.41.34,2.16-1.21.06-.12.06-.72-.45-.44-12.61,6.7-27.57,9.53-40.25,1.81-5.98-3.64-11.06-8.32-14.96-14.75Z"/>
      <path class="cls-1" d="M169.82,98.9c9.66,1.06,17.32.5,27.08-2.74-5.38,8.65-14.7,16.74-25.23,18.94-10.37,2.17-20.63-1.19-30.19-5.57,9.55,7.49,19.26,12.37,32.18,12.44-14.36,9.18-34.65,12.67-47.96-.74-5.05-5.09-9.33-10.81-12.43-17.28-3.72-7.77-1.8-16.09,4.46-21.79,6.88-6.25,13.89-11.55,21.33-17.25l23.85-18.28c7.8-5.98,14.87-12.46,21.59-19.74,7.3-7.9,13.41-16.4,18.08-26.05.19-.38.31-.55.49-.57.28-.04.59.08.65.25.1.3-.37.68-.31.98,3.11,15.91,1.37,28.98-9.04,41.73-5.3,6.49-11.68,11.01-18.03,16.55,7.42-3.55,14.36-7.55,21.29-12.09,6.1-3.99,11.17-8.47,16.16-14.11-.22,12.7-5.84,23.79-14.98,32.1-5.38,4.89-11.14,8.05-17.66,11.84,9.43-1.14,20.43-5.61,28.05-10.73.07,1.37-.4,2.25-.74,3.05-7.48,17.39-20.41,25.77-38.63,29.06Z"/>
      <path class="cls-1" d="M107.5,91.73c1.69-5.95,5.08-10.19,9.19-14.31-2.19-2.96-7.75-7.16-3.74-10.58,3.11-2.65,10.86-5.05,12.63-.69,1.83-4.71-2.16-6.66-5.08-8.6-3.41-2.27-6.44-4.5-11.24-3.57-9.01,1.76-9.96,7.1-19.76,9.23,2.61.81,5,.58,8.23.83-2.29,3.53-2.71,7.22-.36,10.59l5.3,7.59c2.19,3.14,3.72,6.32,4.81,9.51Z"/>
      <path class="cls-1" d="M126.05,154.52l-10.57,6.92-.68-7.88c-1.34,3.73-7.59,22.29-7.99,22.29-.44,0-6.84-20.33-7.82-22.43l-.54,8.05-10.62-6.92c5.76-5.37,8.86-13.16,10.42-20.44l.33-1.53c.32-1.35.67-2.24.76-2.56,3.22,9.64,5.75,19.44,7.32,29.51.04.31.07.83.13,1.14.4,0,.31-.39.38-.83,1.23-7.23,2.76-14.2,4.72-21.21.57-2.03,1.83-6.38,2.82-8.42,1.95,9.36,4.62,17.77,11.34,24.31Z"/>
    </g>
  </g>
</svg>